<svg width="2039" height="160" viewBox="0 0 2039 160" fill="none" xmlns="http://www.w3.org/2000/svg">
<path d="M12.8 157C13.9947 157 15.1893 155.805 16.384 153.416C17.5787 151.027 18.176 147.101 18.176 141.64V18.76C18.176 13.2987 17.5787 9.45866 16.384 7.23999C15.1893 4.85066 13.9947 3.57066 12.8 3.39999H73.216C72.192 3.57066 71.68 4.93599 71.68 7.49599C71.8507 9.88532 73.3013 13.8107 76.032 19.272C77.2267 21.4907 78.9333 24.9893 81.152 29.768C83.5413 34.5467 86.1867 40.0933 89.088 46.408C92.16 52.7227 95.3173 59.464 98.56 66.632C101.973 73.8 105.387 80.968 108.8 88.136C112.213 95.304 115.371 102.045 118.272 108.36H118.528C121.6 102.045 124.843 95.3893 128.256 88.392C131.84 81.224 135.339 74.056 138.752 66.888C142.165 59.72 145.408 52.9787 148.48 46.664C151.552 40.1787 154.197 34.5467 156.416 29.768C158.635 24.8187 160.256 21.1493 161.28 18.76C163.669 13.2987 164.949 9.37333 165.12 6.98399C165.291 4.59466 164.949 3.39999 164.096 3.39999H224.512C223.317 3.39999 222.123 4.59466 220.928 6.98399C219.733 9.37333 219.136 13.384 219.136 19.016V141.64C219.136 147.101 219.733 151.027 220.928 153.416C222.123 155.805 223.317 157 224.512 157H175.104C176.299 157 177.408 155.805 178.432 153.416C179.627 151.027 180.224 147.101 180.224 141.64V58.696H179.712C176.981 63.816 174.08 69.448 171.008 75.592C167.936 81.736 164.779 87.9653 161.536 94.28C158.464 100.595 155.477 106.739 152.576 112.712C149.675 118.685 147.029 124.147 144.64 129.096C142.251 134.045 140.288 138.227 138.752 141.64C136.363 146.931 135.083 150.771 134.912 153.16C134.912 155.549 135.339 156.829 136.192 157H100.352C101.205 156.829 101.547 155.549 101.376 153.16C101.376 150.771 100.181 146.931 97.792 141.64C96.4267 138.568 94.5493 134.557 92.16 129.608C89.9413 124.659 87.3813 119.283 84.48 113.48C81.7493 107.507 78.848 101.363 75.776 95.048C72.704 88.5627 69.632 82.248 66.56 76.104C63.6587 69.7893 60.928 63.9867 58.368 58.696H57.6V141.64C57.6 147.101 58.1973 151.027 59.392 153.416C60.5867 155.805 61.7813 157 62.976 157H12.8Z" fill="white"/>
<path d="M244.488 157C245.341 157 246.621 155.805 248.328 153.416C250.205 151.027 252.339 147.016 254.728 141.384C255.923 138.824 257.8 134.472 260.36 128.328C263.091 122.013 266.163 114.76 269.576 106.568C273.16 98.2053 276.829 89.5013 280.584 80.456C284.509 71.4107 288.179 62.7067 291.592 54.344C295.176 45.9813 298.248 38.6427 300.808 32.328C303.539 26.0133 305.416 21.4907 306.44 18.76C308.659 13.2987 309.853 9.37333 310.024 6.98399C310.195 4.59466 309.853 3.39999 309 3.39999H364.808C364.125 3.39999 363.869 4.59466 364.04 6.98399C364.211 9.20266 365.405 13.128 367.624 18.76C368.648 21.4907 370.44 26.0133 373 32.328C375.56 38.472 378.547 45.7253 381.96 54.088C385.373 62.28 388.957 70.8987 392.712 79.944C396.467 88.9893 400.051 97.6933 403.464 106.056C406.877 114.248 409.949 121.501 412.68 127.816C415.411 134.131 417.373 138.653 418.568 141.384C421.128 147.016 423.603 151.027 425.992 153.416C428.381 155.805 430.173 157 431.368 157H373.256C374.621 156.829 375.731 155.549 376.584 153.16C377.608 150.6 377.608 146.675 376.584 141.384C376.413 140.189 376.243 139.251 376.072 138.568C375.901 137.715 375.56 136.52 375.048 134.984C374.365 132.424 373.597 130.632 372.744 129.608C371.891 128.413 370.44 127.731 368.392 127.56C366.515 127.389 363.357 127.304 358.92 127.304H314.888C310.28 127.304 306.867 127.475 304.648 127.816C302.429 127.987 300.893 128.584 300.04 129.608C299.187 130.632 298.504 132.339 297.992 134.728C297.821 135.581 297.565 136.691 297.224 138.056C297.053 139.421 296.883 140.531 296.712 141.384C295.517 146.845 295.176 150.771 295.688 153.16C296.371 155.549 297.224 156.829 298.248 157H244.488ZM321.544 99.144H351.496C356.445 99.144 359.176 98.7173 359.688 97.864C360.2 97.0107 359.944 95.1333 358.92 92.232C356.701 86.7707 354.483 81.224 352.264 75.592C350.045 69.7893 347.912 64.1573 345.864 58.696C343.987 53.2347 342.28 48.2 340.744 43.592C339.379 38.8133 338.184 34.8027 337.16 31.56H336.648C334.259 37.8747 331.784 44.5307 329.224 51.528C326.664 58.5253 324.275 65.0107 322.056 70.984C319.837 76.9573 318.045 81.9067 316.68 85.832C315.315 89.5867 314.632 91.464 314.632 91.464C313.437 94.1947 313.011 96.1573 313.352 97.352C313.693 98.5467 316.424 99.144 321.544 99.144Z" fill="white"/>
<path d="M501.952 157C503.147 157 504.341 155.805 505.536 153.416C506.731 151.027 507.328 147.101 507.328 141.64V39.24C507.328 35.4853 506.901 33.2667 506.048 32.584C505.195 31.9013 502.208 31.56 497.088 31.56H478.4C468.501 31.56 460.48 32.6693 454.336 34.888C448.363 36.936 444.437 38.8987 442.56 40.776L447.68 11.08V3.39999H606.4V11.08L611.52 40.776C609.643 38.8987 605.632 36.936 599.488 34.888C593.515 32.6693 585.579 31.56 575.68 31.56H557.248C551.957 31.56 548.885 31.9013 548.032 32.584C547.179 33.2667 546.752 35.4853 546.752 39.24V141.64C546.752 147.101 547.349 151.027 548.544 153.416C549.739 155.805 550.933 157 552.128 157H501.952Z" fill="white"/>
<path d="M683.952 157C685.147 157 686.341 155.805 687.536 153.416C688.731 151.027 689.328 147.101 689.328 141.64V39.24C689.328 35.4853 688.901 33.2667 688.048 32.584C687.195 31.9013 684.208 31.56 679.088 31.56H660.4C650.501 31.56 642.48 32.6693 636.336 34.888C630.363 36.936 626.437 38.8987 624.56 40.776L629.68 11.08V3.39999H788.4V11.08L793.52 40.776C791.643 38.8987 787.632 36.936 781.488 34.888C775.515 32.6693 767.579 31.56 757.68 31.56H739.248C733.957 31.56 730.885 31.9013 730.032 32.584C729.179 33.2667 728.752 35.4853 728.752 39.24V141.64C728.752 147.101 729.349 151.027 730.544 153.416C731.739 155.805 732.933 157 734.128 157H683.952Z" fill="white"/>
<path d="M888.8 157C889.995 157 891.189 155.805 892.384 153.416C893.579 151.027 894.176 147.101 894.176 141.64V18.76C894.176 13.2987 893.579 9.45866 892.384 7.23999C891.189 4.85066 889.995 3.57066 888.8 3.39999H969.184C984.203 3.39999 996.832 4.85066 1007.07 7.752C1017.31 10.6533 1025.5 14.664 1031.65 19.784C1037.96 24.904 1042.74 30.792 1045.98 37.448C1049.23 43.9333 1051.36 50.8453 1052.38 58.184C1053.58 65.5227 1054.18 72.9467 1054.18 80.456C1054.18 87.2827 1053.58 94.3653 1052.38 101.704C1051.36 108.872 1049.14 115.784 1045.73 122.44C1042.49 128.925 1037.71 134.813 1031.39 140.104C1025.25 145.224 1017.06 149.32 1006.82 152.392C996.747 155.464 984.203 157 969.184 157H888.8ZM943.84 128.584H954.336C969.013 128.584 980.789 127.389 989.664 125C998.539 122.44 1005.02 117.832 1009.12 111.176C1013.22 104.52 1015.26 94.8773 1015.26 82.248V77.64C1015.26 64.328 1013.39 54.5147 1009.63 48.2C1005.88 41.7147 999.563 37.448 990.688 35.4C981.813 33.352 969.696 32.328 954.336 32.328H943.84C938.891 32.328 935.904 32.6693 934.88 33.352C934.027 33.864 933.6 35.912 933.6 39.496V120.904C933.6 124.659 934.027 126.877 934.88 127.56C935.904 128.243 938.891 128.584 943.84 128.584Z" fill="white"/>
<path d="M1165.93 159.56C1148.69 159.56 1134.53 156.829 1123.43 151.368C1112.34 145.907 1104.15 138.056 1098.86 127.816C1093.57 117.405 1090.92 105.032 1090.92 90.696V18.504C1090.92 13.0427 1090.32 9.20266 1089.13 6.98399C1088.1 4.59466 1086.99 3.39999 1085.8 3.39999H1134.95C1133.76 3.57066 1132.56 4.76532 1131.37 6.98399C1130.34 9.20266 1129.83 13.0427 1129.83 18.504V90.184C1129.83 101.107 1131.37 109.555 1134.44 115.528C1137.51 121.501 1141.78 125.597 1147.24 127.816C1152.7 130.035 1159.02 131.144 1166.18 131.144H1169C1174.63 131.144 1179.58 130.547 1183.85 129.352C1188.29 128.157 1191.95 126.109 1194.86 123.208C1197.93 120.307 1200.23 116.211 1201.77 110.92C1203.47 105.459 1204.33 98.5467 1204.33 90.184V18.504C1204.33 13.0427 1203.73 9.20266 1202.54 6.98399C1201.51 4.59466 1200.4 3.39999 1199.21 3.39999H1248.36C1247.17 3.57066 1245.97 4.85066 1244.78 7.23999C1243.75 9.45866 1243.24 13.2987 1243.24 18.76V90.696C1243.24 105.032 1240.51 117.405 1235.05 127.816C1229.76 138.056 1221.57 145.907 1210.47 151.368C1199.55 156.829 1185.55 159.56 1168.49 159.56H1165.93Z" fill="white"/>
<path d="M1282.8 157C1283.99 157 1285.19 155.805 1286.38 153.416C1287.58 151.027 1288.18 147.101 1288.18 141.64V18.76C1288.18 13.2987 1287.58 9.45866 1286.38 7.23999C1285.19 4.85066 1283.99 3.57066 1282.8 3.39999H1332.98C1331.78 3.39999 1331.44 4.59466 1331.95 6.98399C1332.63 9.37333 1335.45 13.4693 1340.4 19.272C1341.77 20.6373 1343.98 23.1973 1347.06 26.952C1350.3 30.536 1354.14 34.888 1358.58 40.008C1363.01 45.128 1367.71 50.6747 1372.66 56.648C1377.78 62.6213 1382.9 68.5947 1388.02 74.568C1393.31 80.5413 1398.34 86.2587 1403.12 91.72H1403.38V18.76C1403.38 13.2987 1402.78 9.45866 1401.58 7.23999C1400.39 4.85066 1399.19 3.57066 1398 3.39999H1448.18C1446.98 3.39999 1445.79 4.59466 1444.59 6.98399C1443.4 9.37333 1442.8 13.384 1442.8 19.016V141.64C1442.8 147.101 1443.4 151.027 1444.59 153.416C1445.79 155.805 1446.98 157 1448.18 157H1404.14C1405.17 157 1405.25 155.805 1404.4 153.416C1403.72 151.027 1401.07 146.931 1396.46 141.128C1394.07 138.056 1390.92 134.131 1386.99 129.352C1383.07 124.403 1378.63 118.941 1373.68 112.968C1368.9 106.995 1363.87 100.765 1358.58 94.28C1353.29 87.7947 1347.99 81.48 1342.7 75.336C1337.58 69.0213 1332.81 63.2187 1328.37 57.928H1327.6V141.64C1327.6 147.101 1328.2 151.027 1329.39 153.416C1330.59 155.805 1331.78 157 1332.98 157H1282.8Z" fill="white"/>
<path d="M1567.05 159.56C1537.69 159.56 1515.68 153.245 1501 140.616C1486.49 127.816 1479.24 107.677 1479.24 80.2C1479.24 64.328 1482.23 50.504 1488.2 38.728C1494.17 26.7813 1503.65 17.48 1516.62 10.824C1529.59 4.16799 1546.4 0.839996 1567.05 0.839996C1583.26 0.839996 1596.74 1.69333 1607.5 3.39999C1618.25 5.10666 1625.5 6.81332 1629.26 8.51999V16.2L1634.38 44.36C1631.13 42.1413 1626.27 39.8373 1619.78 37.448C1613.47 35.0587 1605.87 33.096 1597 31.56C1588.13 29.8533 1578.31 29 1567.56 29C1555.78 29 1546.23 30.8773 1538.89 34.632C1531.72 38.3867 1526.43 44.104 1523.02 51.784C1519.77 59.2933 1518.15 68.7653 1518.15 80.2C1518.15 91.6347 1519.77 101.107 1523.02 108.616C1526.43 116.125 1532.23 121.757 1540.42 125.512C1548.79 129.267 1560.31 131.144 1574.98 131.144C1589.66 131.144 1601.86 129.096 1611.59 125C1621.49 120.904 1628.23 116.979 1631.82 113.224V120.904L1634.38 146.76C1631.47 149.491 1624.39 152.307 1613.13 155.208C1602.03 158.109 1586.67 159.56 1567.05 159.56Z" fill="white"/>
<path d="M1652.49 157C1653.34 157 1654.62 155.805 1656.33 153.416C1658.21 151.027 1660.34 147.016 1662.73 141.384C1663.92 138.824 1665.8 134.472 1668.36 128.328C1671.09 122.013 1674.16 114.76 1677.58 106.568C1681.16 98.2053 1684.83 89.5013 1688.58 80.456C1692.51 71.4107 1696.18 62.7067 1699.59 54.344C1703.18 45.9813 1706.25 38.6427 1708.81 32.328C1711.54 26.0133 1713.42 21.4907 1714.44 18.76C1716.66 13.2987 1717.85 9.37333 1718.02 6.98399C1718.19 4.59466 1717.85 3.39999 1717 3.39999H1772.81C1772.13 3.39999 1771.87 4.59466 1772.04 6.98399C1772.21 9.20266 1773.41 13.128 1775.62 18.76C1776.65 21.4907 1778.44 26.0133 1781 32.328C1783.56 38.472 1786.55 45.7253 1789.96 54.088C1793.37 62.28 1796.96 70.8987 1800.71 79.944C1804.47 88.9893 1808.05 97.6933 1811.46 106.056C1814.88 114.248 1817.95 121.501 1820.68 127.816C1823.41 134.131 1825.37 138.653 1826.57 141.384C1829.13 147.016 1831.6 151.027 1833.99 153.416C1836.38 155.805 1838.17 157 1839.37 157H1781.26C1782.62 156.829 1783.73 155.549 1784.58 153.16C1785.61 150.6 1785.61 146.675 1784.58 141.384C1784.41 140.189 1784.24 139.251 1784.07 138.568C1783.9 137.715 1783.56 136.52 1783.05 134.984C1782.37 132.424 1781.6 130.632 1780.74 129.608C1779.89 128.413 1778.44 127.731 1776.39 127.56C1774.51 127.389 1771.36 127.304 1766.92 127.304H1722.89C1718.28 127.304 1714.87 127.475 1712.65 127.816C1710.43 127.987 1708.89 128.584 1708.04 129.608C1707.19 130.632 1706.5 132.339 1705.99 134.728C1705.82 135.581 1705.57 136.691 1705.22 138.056C1705.05 139.421 1704.88 140.531 1704.71 141.384C1703.52 146.845 1703.18 150.771 1703.69 153.16C1704.37 155.549 1705.22 156.829 1706.25 157H1652.49ZM1729.54 99.144H1759.5C1764.45 99.144 1767.18 98.7173 1767.69 97.864C1768.2 97.0107 1767.94 95.1333 1766.92 92.232C1764.7 86.7707 1762.48 81.224 1760.26 75.592C1758.05 69.7893 1755.91 64.1573 1753.86 58.696C1751.99 53.2347 1750.28 48.2 1748.74 43.592C1747.38 38.8133 1746.18 34.8027 1745.16 31.56H1744.65C1742.26 37.8747 1739.78 44.5307 1737.22 51.528C1734.66 58.5253 1732.27 65.0107 1730.06 70.984C1727.84 76.9573 1726.05 81.9067 1724.68 85.832C1723.31 89.5867 1722.63 91.464 1722.63 91.464C1721.44 94.1947 1721.01 96.1573 1721.35 97.352C1721.69 98.5467 1724.42 99.144 1729.54 99.144Z" fill="white"/>
<path d="M1860.8 157C1861.99 157 1863.19 155.805 1864.38 153.416C1865.58 151.027 1866.18 147.101 1866.18 141.64V18.76C1866.18 13.2987 1865.58 9.45866 1864.38 7.23999C1863.19 4.85066 1861.99 3.57066 1860.8 3.39999H1910.98C1909.78 3.39999 1909.44 4.59466 1909.95 6.98399C1910.63 9.37333 1913.45 13.4693 1918.4 19.272C1919.77 20.6373 1921.98 23.1973 1925.06 26.952C1928.3 30.536 1932.14 34.888 1936.58 40.008C1941.01 45.128 1945.71 50.6747 1950.66 56.648C1955.78 62.6213 1960.9 68.5947 1966.02 74.568C1971.31 80.5413 1976.34 86.2587 1981.12 91.72H1981.38V18.76C1981.38 13.2987 1980.78 9.45866 1979.58 7.23999C1978.39 4.85066 1977.19 3.57066 1976 3.39999H2026.18C2024.98 3.39999 2023.79 4.59466 2022.59 6.98399C2021.4 9.37333 2020.8 13.384 2020.8 19.016V141.64C2020.8 147.101 2021.4 151.027 2022.59 153.416C2023.79 155.805 2024.98 157 2026.18 157H1982.14C1983.17 157 1983.25 155.805 1982.4 153.416C1981.72 151.027 1979.07 146.931 1974.46 141.128C1972.07 138.056 1968.92 134.131 1964.99 129.352C1961.07 124.403 1956.63 118.941 1951.68 112.968C1946.9 106.995 1941.87 100.765 1936.58 94.28C1931.29 87.7947 1925.99 81.48 1920.7 75.336C1915.58 69.0213 1910.81 63.2187 1906.37 57.928H1905.6V141.64C1905.6 147.101 1906.2 151.027 1907.39 153.416C1908.59 155.805 1909.78 157 1910.98 157H1860.8Z" fill="white"/>
</svg>
